<mxfile host="app.diagrams.net" modified="2023-09-29T09:12:14.386Z" agent="Mozilla/5.0 (Windows NT 10.0; Win64; x64) AppleWebKit/537.36 (KHTML, like Gecko) Chrome/117.0.0.0 Safari/537.36" etag="a8ebI448u6rZEmx1ueRB" version="22.0.0" type="github">
  <diagram name="Page-1" id="R6NhxKw5cIU4LXGQcw0_">
    <mxGraphModel dx="1050" dy="542" grid="1" gridSize="10" guides="1" tooltips="1" connect="1" arrows="1" fold="1" page="1" pageScale="1" pageWidth="850" pageHeight="1100" math="0" shadow="0">
      <root>
        <mxCell id="0" />
        <mxCell id="1" parent="0" />
        <mxCell id="s0HM0swn6p0g213vLIS0-1" value="" style="whiteSpace=wrap;html=1;aspect=fixed;" vertex="1" parent="1">
          <mxGeometry x="130" y="420" width="130" height="130" as="geometry" />
        </mxCell>
        <mxCell id="s0HM0swn6p0g213vLIS0-2" value="" style="verticalLabelPosition=bottom;html=1;verticalAlign=top;align=center;strokeColor=none;fillColor=#00BEF2;shape=mxgraph.azure.computer;pointerEvents=1;" vertex="1" parent="1">
          <mxGeometry x="165" y="435" width="50" height="45" as="geometry" />
        </mxCell>
        <mxCell id="s0HM0swn6p0g213vLIS0-3" value="" style="whiteSpace=wrap;html=1;aspect=fixed;" vertex="1" parent="1">
          <mxGeometry x="560" y="420" width="130" height="130" as="geometry" />
        </mxCell>
        <mxCell id="s0HM0swn6p0g213vLIS0-5" value="" style="image;aspect=fixed;perimeter=ellipsePerimeter;html=1;align=center;shadow=0;dashed=0;spacingTop=3;image=img/lib/active_directory/web_server.svg;" vertex="1" parent="1">
          <mxGeometry x="605" y="432.5" width="40" height="50" as="geometry" />
        </mxCell>
        <mxCell id="s0HM0swn6p0g213vLIS0-11" value="" style="shape=link;html=1;rounded=0;" edge="1" parent="1">
          <mxGeometry width="100" relative="1" as="geometry">
            <mxPoint x="280" y="483" as="sourcePoint" />
            <mxPoint x="540" y="483" as="targetPoint" />
          </mxGeometry>
        </mxCell>
        <mxCell id="s0HM0swn6p0g213vLIS0-12" value="&lt;font style=&quot;font-size: 17px;&quot;&gt;FastAPI&lt;/font&gt;" style="text;html=1;align=center;verticalAlign=middle;resizable=0;points=[];autosize=1;strokeColor=none;fillColor=none;" vertex="1" parent="1">
          <mxGeometry x="360" y="448" width="80" height="30" as="geometry" />
        </mxCell>
        <mxCell id="s0HM0swn6p0g213vLIS0-14" value="Front-end" style="text;html=1;align=center;verticalAlign=middle;resizable=0;points=[];autosize=1;strokeColor=none;fillColor=none;" vertex="1" parent="1">
          <mxGeometry x="155" y="378" width="80" height="30" as="geometry" />
        </mxCell>
        <mxCell id="s0HM0swn6p0g213vLIS0-15" value="Back-end" style="text;html=1;align=center;verticalAlign=middle;resizable=0;points=[];autosize=1;strokeColor=none;fillColor=none;" vertex="1" parent="1">
          <mxGeometry x="590" y="378" width="70" height="30" as="geometry" />
        </mxCell>
        <mxCell id="s0HM0swn6p0g213vLIS0-16" value="ReactJS" style="text;html=1;strokeColor=none;fillColor=none;align=center;verticalAlign=middle;whiteSpace=wrap;rounded=0;" vertex="1" parent="1">
          <mxGeometry x="160" y="510" width="60" height="30" as="geometry" />
        </mxCell>
        <mxCell id="s0HM0swn6p0g213vLIS0-17" value="Django" style="text;html=1;strokeColor=none;fillColor=none;align=center;verticalAlign=middle;whiteSpace=wrap;rounded=0;" vertex="1" parent="1">
          <mxGeometry x="595" y="500" width="60" height="30" as="geometry" />
        </mxCell>
        <mxCell id="s0HM0swn6p0g213vLIS0-19" value="" style="endArrow=classic;html=1;rounded=0;" edge="1" parent="1">
          <mxGeometry width="50" height="50" relative="1" as="geometry">
            <mxPoint x="624.5" y="360" as="sourcePoint" />
            <mxPoint x="624.5" y="250" as="targetPoint" />
          </mxGeometry>
        </mxCell>
        <mxCell id="s0HM0swn6p0g213vLIS0-21" value="" style="whiteSpace=wrap;html=1;aspect=fixed;" vertex="1" parent="1">
          <mxGeometry x="560" y="100" width="130" height="130" as="geometry" />
        </mxCell>
        <mxCell id="s0HM0swn6p0g213vLIS0-22" value="" style="image;html=1;image=img/lib/clip_art/networking/Cloud_Server_128x128.png" vertex="1" parent="1">
          <mxGeometry x="585" y="100" width="80" height="80" as="geometry" />
        </mxCell>
        <mxCell id="s0HM0swn6p0g213vLIS0-23" value="Deploy" style="text;html=1;align=center;verticalAlign=middle;resizable=0;points=[];autosize=1;strokeColor=none;fillColor=none;" vertex="1" parent="1">
          <mxGeometry x="550" y="288" width="60" height="30" as="geometry" />
        </mxCell>
        <mxCell id="s0HM0swn6p0g213vLIS0-24" value="Kubernetes GCP" style="text;html=1;strokeColor=none;fillColor=none;align=center;verticalAlign=middle;whiteSpace=wrap;rounded=0;" vertex="1" parent="1">
          <mxGeometry x="575" y="190" width="100" height="30" as="geometry" />
        </mxCell>
        <mxCell id="s0HM0swn6p0g213vLIS0-25" value="" style="whiteSpace=wrap;html=1;aspect=fixed;" vertex="1" parent="1">
          <mxGeometry x="560" y="670" width="130" height="130" as="geometry" />
        </mxCell>
        <mxCell id="s0HM0swn6p0g213vLIS0-27" value="" style="image;html=1;image=img/lib/clip_art/computers/Database_128x128.png" vertex="1" parent="1">
          <mxGeometry x="600" y="680" width="50" height="60" as="geometry" />
        </mxCell>
        <mxCell id="s0HM0swn6p0g213vLIS0-28" value="SQLite" style="text;html=1;strokeColor=none;fillColor=none;align=center;verticalAlign=middle;whiteSpace=wrap;rounded=0;" vertex="1" parent="1">
          <mxGeometry x="595" y="750" width="60" height="30" as="geometry" />
        </mxCell>
        <mxCell id="s0HM0swn6p0g213vLIS0-29" value="" style="endArrow=classic;html=1;rounded=0;" edge="1" parent="1">
          <mxGeometry width="50" height="50" relative="1" as="geometry">
            <mxPoint x="624.5" y="560" as="sourcePoint" />
            <mxPoint x="624.5" y="650" as="targetPoint" />
          </mxGeometry>
        </mxCell>
        <mxCell id="s0HM0swn6p0g213vLIS0-30" value="Database" style="text;html=1;align=center;verticalAlign=middle;resizable=0;points=[];autosize=1;strokeColor=none;fillColor=none;" vertex="1" parent="1">
          <mxGeometry x="545" y="598" width="70" height="30" as="geometry" />
        </mxCell>
      </root>
    </mxGraphModel>
  </diagram>
</mxfile>
